<svg width="24" height="24" viewBox="0 0 24 24" fill="none" xmlns="http://www.w3.org/2000/svg">
<path d="M19.9547 5.54297C17.8848 3.48538 15.0962 2.31278 12.1778 2.27277C9.2595 2.23276 6.43983 3.32848 4.31425 5.32855C2.18867 7.32862 0.923581 10.0765 0.786117 12.9918C0.648653 15.9072 1.64958 18.7619 3.57753 20.9531L3.58597 20.9625C3.60144 20.9789 3.61597 20.9958 3.63284 21.0117C3.66753 21.0511 3.70691 21.0956 3.75331 21.142C3.93531 21.3355 4.15527 21.4893 4.39943 21.5938C4.6436 21.6983 4.90671 21.7513 5.17229 21.7494C5.43788 21.7476 5.70023 21.6909 5.94292 21.583C6.1856 21.4751 6.4034 21.3183 6.58269 21.1223C7.27253 20.3726 8.1104 19.7742 9.04335 19.3648C9.9763 18.9554 10.984 18.7441 12.0028 18.7441C13.0217 18.7441 14.0294 18.9554 14.9623 19.3648C15.8953 19.7742 16.7332 20.3726 17.423 21.1223C17.6036 21.3193 17.8232 21.4767 18.0677 21.5844C18.3123 21.6921 18.5766 21.7479 18.8439 21.7481C19.1111 21.7484 19.3755 21.6932 19.6203 21.5859C19.8651 21.4787 20.085 21.3218 20.266 21.1252L20.4164 20.9611L20.4249 20.9517C22.3245 18.8067 23.3338 16.0174 23.2467 13.1534C23.1596 10.2895 21.9826 7.56674 19.9561 5.54109L19.9547 5.54297ZM11.25 6C11.25 5.80109 11.329 5.61032 11.4697 5.46967C11.6104 5.32902 11.8011 5.25 12 5.25C12.1989 5.25 12.3897 5.32902 12.5304 5.46967C12.671 5.61032 12.75 5.80109 12.75 6V7.5C12.75 7.69891 12.671 7.88968 12.5304 8.03033C12.3897 8.17098 12.1989 8.25 12 8.25C11.8011 8.25 11.6104 8.17098 11.4697 8.03033C11.329 7.88968 11.25 7.69891 11.25 7.5V6ZM6.00003 14.25H4.50003C4.30112 14.25 4.11035 14.171 3.9697 14.0303C3.82905 13.8897 3.75003 13.6989 3.75003 13.5C3.75003 13.3011 3.82905 13.1103 3.9697 12.9697C4.11035 12.829 4.30112 12.75 4.50003 12.75H6.00003C6.19894 12.75 6.38971 12.829 6.53036 12.9697C6.67101 13.1103 6.75003 13.3011 6.75003 13.5C6.75003 13.6989 6.67101 13.8897 6.53036 14.0303C6.38971 14.171 6.19894 14.25 6.00003 14.25ZM8.28753 9.7875C8.14689 9.92805 7.9562 10.007 7.75737 10.007C7.55855 10.007 7.36786 9.92805 7.22722 9.7875L6.16644 8.72719C6.02577 8.58652 5.94674 8.39573 5.94674 8.1968C5.94674 7.99786 6.02577 7.80708 6.16644 7.66641C6.30711 7.52574 6.49789 7.44671 6.69683 7.44671C6.89576 7.44671 7.08655 7.52574 7.22722 7.66641L8.28753 8.72719C8.42808 8.86783 8.50703 9.05852 8.50703 9.25735C8.50703 9.45617 8.42808 9.64686 8.28753 9.7875ZM15.286 10.8703L13.0594 14.4094C12.9683 14.5356 12.8575 14.6464 12.7313 14.7375C12.4265 14.9501 12.0502 15.034 11.684 14.9708C11.3178 14.9077 10.9912 14.7027 10.7752 14.4003C10.5592 14.0979 10.4712 13.7225 10.5303 13.3557C10.5893 12.9888 10.7907 12.66 11.0907 12.4406L14.6297 10.2141C14.7102 10.158 14.8059 10.1279 14.9039 10.1279C15.002 10.1279 15.0977 10.158 15.1782 10.2141C15.2792 10.287 15.3472 10.397 15.3674 10.5199C15.3876 10.6429 15.3584 10.7689 15.286 10.8703ZM16.7728 9.7875C16.631 9.92222 16.4422 9.99621 16.2467 9.99371C16.0511 9.9912 15.8642 9.9124 15.7259 9.7741C15.5876 9.6358 15.5088 9.44894 15.5063 9.25337C15.5038 9.0578 15.5778 8.86898 15.7125 8.72719L16.7728 7.66641C16.9135 7.52574 17.1043 7.44671 17.3032 7.44671C17.5022 7.44671 17.693 7.52574 17.8336 7.66641C17.9743 7.80708 18.0533 7.99786 18.0533 8.1968C18.0533 8.39573 17.9743 8.58652 17.8336 8.72719L16.7728 9.7875ZM19.5 14.25H18C17.8011 14.25 17.6104 14.171 17.4697 14.0303C17.329 13.8897 17.25 13.6989 17.25 13.5C17.25 13.3011 17.329 13.1103 17.4697 12.9697C17.6104 12.829 17.8011 12.75 18 12.75H19.5C19.6989 12.75 19.8897 12.829 20.0304 12.9697C20.171 13.1103 20.25 13.3011 20.25 13.5C20.25 13.6989 20.171 13.8897 20.0304 14.0303C19.8897 14.171 19.6989 14.25 19.5 14.25Z" fill="#4B3EAE"/>
</svg>
